# xmcd
#
# Track frame offsets: 
#        150
#        41167
#        101895
#        128812
#
# Disc length: 2492 seconds
#
# Revision: 4
# Processed by: cddbd v1.5.2PL0 Copyright (c) Steve Scherf et al.
# Submitted via: ExactAudioCopy v1.1
#
DISCID=3409ba04
DTITLE=Sibelius, Jean - Symphonies 1-7 [Chamber Orchestra of Europe, P
DTITLE=aavo Berglund] (Finlandia, 4cd, 1998)
DYEAR=1998
DGENRE=Classical
TTITLE0=Symphony No. 2 in D major, Op. 43 - I. Allegretto
TTITLE1=Symphony No. 2 - II. Tempo andante ma rubato
TTITLE2=Symphony No. 2 - III. Vivacissimo - attacca
TTITLE3=Symphony No. 2 - IV. Finale. Allegro moderato
EXTD=YEAR: 1997
EXTT0=
EXTT1=
EXTT2=
EXTT3=
PLAYORDER=
